<svg id="Layer_1" data-name="Layer 1" xmlns="http://www.w3.org/2000/svg" xmlns:xlink="http://www.w3.org/1999/xlink" viewBox="0 0 462.77 71.69"><defs><style>.cls-1,.cls-2,.cls-3{isolation:isolate;}.cls-2,.cls-3{font-size:54.03px;fill:#fff;font-family:RoserittaRegular, Roseritta;}.cls-3{letter-spacing:-0.03em;}.cls-4{fill:url(#linear-gradient);}</style><linearGradient id="linear-gradient" x1="192.17" y1="51.91" x2="264.59" y2="51.91" gradientTransform="matrix(1, 0, 0, -1, 0, 83.89)" gradientUnits="userSpaceOnUse"><stop offset="0" stop-color="#c7ac8f"/><stop offset="1" stop-color="#231f20"/></linearGradient></defs><g class="cls-1"><text class="cls-2" transform="translate(0 63.96)">Prodi</text><text class="cls-3" transform="translate(131.95 63.96)">g</text><text class="cls-2" transform="translate(165.99 63.96)"><tspan xml:space="preserve">y    Prestige</tspan></text></g><path class="cls-4" d="M264.21,15.27Q256.74,7.8,249.26.36a1.59,1.59,0,0,0-1-.36H208.65a2,2,0,0,0-1.3.55c-3.49,3.43-6.94,6.91-10.41,10.36-1.58,1.57-3.17,3.11-4.77,4.69L228,64l36.56-48.29A2.72,2.72,0,0,1,264.21,15.27ZM248.89,4.94,258,14.06H245.79C246.84,11,247.86,8,248.89,4.94Zm-3.08-1.53-3.31,9.76-9.72-9.76ZM238.22,14H218.6l9.83-9.8ZM224,3.44l-9.87,9.82-3.22-9.82ZM207.83,4.91c1,3,2,6,3,9.14H198.67Zm15,46.42-25-33.73c.4,0,.65-.06.91-.06h12.42c.54,0,.84.11,1,.7q5.29,16.34,10.65,32.65c.05.13.08.26.12.39Zm5.1,4.16-12.4-37.92H241c-4.31,12.7-8.59,25.31-12.88,37.92Zm5.32-4.13-.13-.07,2.79-8.19c2.78-8.22,5.58-16.43,8.34-24.65a1.16,1.16,0,0,1,1.31-.94h13.35c-8.63,11.41-17.14,22.63-25.64,33.85Z" transform="translate(0 0)"/></svg>